<svg width="21" height="21" viewBox="0 0 21 21" fill="none" xmlns="http://www.w3.org/2000/svg">
<g opacity="0.5">
<path d="M3.37694 8.19444C3.83291 6.60428 4.78058 5.1993 6.08414 4.18085C7.3877 3.1624 8.98021 2.58277 10.6334 2.52504C12.2867 2.4673 13.9157 2.93443 15.2872 3.85947C16.6586 4.78451 17.702 6.11997 18.2677 7.67444" stroke="black" stroke-linejoin="round"/>
<path d="M18.124 13.3986C17.5348 14.7952 16.5529 15.9908 15.2977 16.8405C14.0424 17.6901 12.5675 18.1573 11.052 18.1854C9.53643 18.2135 8.04529 17.8013 6.75938 16.9987C5.47347 16.1961 4.44804 15.0377 3.80743 13.6639" stroke="black" stroke-linejoin="round"/>
<path d="M7.33432 12.8738L3.62253 13.1168L2.24414 16.6476" stroke="black"/>
<path d="M14.3956 8.15381L18.2503 8.14433L19.5664 4.63488" stroke="black"/>
</g>
</svg>
