<svg width="24" height="25" viewBox="0 0 24 25" fill="none" xmlns="http://www.w3.org/2000/svg">
<g opacity="0.5">
<path d="M13.5654 7.22461H18.0525L22.4874 11.6073V18.3379H20.4914" stroke="black"/>
<path d="M8.55664 18.4424H15.2872" stroke="black"/>
<circle cx="17.9482" cy="18.3381" r="2.4218" stroke="black"/>
<path fill-rule="evenodd" clip-rule="evenodd" d="M6.05223 20.2599C7.11362 20.2599 7.97404 19.3994 7.97404 18.3381C7.97404 17.2767 7.11362 16.4163 6.05223 16.4163C4.99085 16.4163 4.13043 17.2767 4.13043 18.3381C4.13043 19.3994 4.99085 20.2599 6.05223 20.2599ZM6.05223 21.2599C7.6659 21.2599 8.97404 19.9517 8.97404 18.3381C8.97404 16.7244 7.6659 15.4163 6.05223 15.4163C4.43857 15.4163 3.13043 16.7244 3.13043 18.3381C3.13043 19.9517 4.43857 21.2599 6.05223 21.2599Z" fill="black"/>
<path d="M1.49817 18.847L1.49818 3.85474L13.501 3.87723V18.3381H8.4523" stroke="black"/>
<path d="M1.19995 18.3379H3.70435" stroke="black"/>
</g>
</svg>
