<svg width="21" height="20" viewBox="0 0 21 20" fill="none" xmlns="http://www.w3.org/2000/svg">
<path d="M6.49834 0.183594C3.41114 0.183594 0.899902 2.69716 0.899902 5.78516L0.899902 13.7852C0.899902 16.8724 3.41346 19.3836 6.50146 19.3836H14.5015C17.5887 19.3836 20.0999 16.87 20.0999 13.782V5.78203C20.0999 2.69483 17.5863 0.183594 14.4983 0.183594L6.49834 0.183594ZM16.0999 3.38359C16.5415 3.38359 16.8999 3.74199 16.8999 4.18359C16.8999 4.62519 16.5415 4.98359 16.0999 4.98359C15.6583 4.98359 15.2999 4.62519 15.2999 4.18359C15.2999 3.74199 15.6583 3.38359 16.0999 3.38359ZM10.4999 4.98359C13.1471 4.98359 15.2999 7.13639 15.2999 9.78359C15.2999 12.4308 13.1471 14.5836 10.4999 14.5836C7.8527 14.5836 5.6999 12.4308 5.6999 9.78359C5.6999 7.13639 7.8527 4.98359 10.4999 4.98359ZM10.4999 6.58359C9.65121 6.58359 8.83728 6.92074 8.23716 7.52085C7.63704 8.12097 7.2999 8.9349 7.2999 9.78359C7.2999 10.6323 7.63704 11.4462 8.23716 12.0463C8.83728 12.6465 9.65121 12.9836 10.4999 12.9836C11.3486 12.9836 12.1625 12.6465 12.7626 12.0463C13.3628 11.4462 13.6999 10.6323 13.6999 9.78359C13.6999 8.9349 13.3628 8.12097 12.7626 7.52085C12.1625 6.92074 11.3486 6.58359 10.4999 6.58359Z" fill="#333333"/>
</svg>
